<svg width="265" height="72" viewBox="0 0 265 72" fill="none" xmlns="http://www.w3.org/2000/svg">
<path fill-rule="evenodd" clip-rule="evenodd" d="M0 9.17041C0 4.10573 4.10573 0 9.17041 0H51.4693C56.5339 0 60.6397 4.10572 60.6397 9.17041V37.124C60.6816 37.2753 60.7039 37.4343 60.7039 37.5984C60.7039 38.6114 59.8536 39.4325 58.8048 39.4325C57.7559 39.4325 56.9057 38.6114 56.9057 37.5984C56.9057 37.432 56.9286 37.2709 56.9716 37.1176V9.17041C56.9716 6.13162 54.5081 3.66817 51.4693 3.66817H9.17041C6.1316 3.66817 3.66817 6.1316 3.66817 9.17041V49.5202C3.66817 52.559 6.13162 55.0225 9.17041 55.0225H38.6358C38.6486 55.0222 38.6614 55.0221 38.6742 55.0221C38.687 55.0221 38.6997 55.0222 38.7125 55.0225H38.8655V55.0313C39.8245 55.124 40.5732 55.9056 40.5732 56.8562C40.5732 57.8068 39.8245 58.5884 38.8655 58.6811V58.6906H9.17041C4.10572 58.6906 0 54.5848 0 49.5202V9.17041ZM37.3291 36.9111L59.7946 48.0342L55.7557 49.9845C55.0975 50.2141 54.627 50.8228 54.627 51.5376C54.627 52.4492 55.3923 53.1883 56.3362 53.1883C56.6834 53.1883 57.0064 53.0883 57.276 52.9165L64.2697 49.5393L64.27 49.5392C65.6674 48.8644 65.6673 46.874 64.2697 46.1994L34.7444 31.9476C33.169 31.178 31.5157 32.8632 32.325 34.426L32.3255 34.4269L47.1782 63.1163L37.3291 36.9111ZM37.3291 36.9111L48.7327 58.9382C48.8036 58.807 48.875 58.6742 48.9466 58.5407C49.006 58.43 49.0654 58.319 49.1245 58.2083L50.6445 55.2721L50.6447 55.2718L50.6905 55.1834L50.6922 55.18L50.7061 55.1532L50.7077 55.15C51.3972 53.8184 53.1751 53.5265 54.2542 54.5685L68.6971 68.5173C69.1453 68.8148 69.4393 69.3135 69.4393 69.8786C69.4393 70.7902 68.6741 71.5292 67.7301 71.5292C67.1441 71.5292 66.627 71.2444 66.3191 70.8103L52.9961 57.9432C52.7238 58.467 52.39 59.101 52.0467 59.7444L50.3011 63.1163L50.3005 63.1175C49.6455 64.3829 47.8358 64.3835 47.1798 63.1192L37.3291 36.9111ZM78.7579 43.0419C80.3182 44.5483 82.887 45.3015 86.4647 45.3015H95.9873V40.863H86.4647C84.9852 40.863 83.8823 40.5133 83.1561 39.8139C82.4567 39.0877 82.107 37.9848 82.107 36.5053V33.3983H94.1312V28.9598H82.107V25.8529C82.107 24.3466 82.4567 23.2436 83.1561 22.5442C83.8823 21.8449 84.9852 21.4951 86.4647 21.4951H95.9066V17.0567H86.4647C82.887 17.0567 80.3182 17.8099 78.7579 19.3162C77.1977 20.8226 76.4176 23.0015 76.4176 25.8529V36.5053C76.4176 39.3567 77.1977 41.5356 78.7579 43.0419ZM103.521 44.8173C104.355 45.4629 105.471 45.7857 106.87 45.7857C108.296 45.7857 109.412 45.4629 110.219 44.8173C111.026 44.1448 111.658 43.0553 112.115 41.549L116.796 26.3371H111.712L107.354 41.0648C107.22 41.522 107.058 41.7507 106.87 41.7507C106.736 41.7507 106.628 41.697 106.547 41.5893C106.493 41.4817 106.426 41.3069 106.345 41.0648L101.907 26.3371H96.8229L101.584 41.549C102.042 43.0553 102.687 44.1448 103.521 44.8173ZM129.592 41.4683C128.973 41.7104 128.166 41.8314 127.171 41.8314C124.804 41.8314 123.62 40.6747 123.62 38.3614V37.9982H131.206C132.336 37.9982 133.196 37.8502 133.788 37.5544C134.38 37.2316 134.77 36.7474 134.958 36.1018C135.174 35.4562 135.281 34.5415 135.281 33.358C135.281 30.91 134.528 29.0539 133.021 27.7897C131.515 26.4985 129.43 25.8529 126.767 25.8529C124.185 25.8529 122.141 26.4582 120.634 27.6687C119.155 28.8522 118.415 30.4798 118.415 32.551V38.321C118.415 40.9571 119.101 42.8671 120.473 44.0507C121.845 45.2074 124.077 45.7857 127.171 45.7857C130.641 45.7857 133.156 44.8307 134.716 42.9209L131.609 40.0964C130.883 40.742 130.211 41.1992 129.592 41.4683ZM124.427 30.6949C124.992 30.103 125.772 29.8072 126.767 29.8072C127.843 29.8072 128.664 30.0763 129.229 30.6142C129.793 31.1521 130.076 31.9323 130.076 32.9545C130.076 33.4924 129.941 33.8691 129.672 34.0843C129.404 34.2994 128.919 34.4071 128.22 34.4071H123.62V32.9545C123.62 32.013 123.889 31.2598 124.427 30.6949ZM153.127 26.9827C152.159 26.2294 150.975 25.8529 149.576 25.8529C148.285 25.8529 147.196 26.1757 146.308 26.8213C145.42 27.4399 144.707 28.2739 144.169 29.323C143.927 28.5697 143.537 27.9241 142.999 27.3862C142.461 26.8483 141.735 26.3371 140.82 25.8529L137.31 28.9195C138.036 29.4574 138.534 29.9552 138.803 30.4124C139.099 30.8697 139.247 31.4615 139.247 32.1878V45.3015H144.492V33.8422C145.272 31.4749 146.55 30.2914 148.325 30.2914C149.079 30.2914 149.711 30.3721 150.222 30.5335C150.733 30.6949 151.271 30.964 151.836 31.3405L153.127 26.9827ZM173.544 47.0769V26.3371H168.298V37.2719C167.975 38.5901 167.491 39.6526 166.846 40.4595C166.227 41.2665 165.299 41.67 164.061 41.67C163.147 41.67 162.421 41.401 161.883 40.863C161.372 40.3251 161.116 39.5988 161.116 38.6842V32.0264C161.116 30.4124 160.847 29.1616 160.309 28.2739C159.771 27.3592 158.816 26.5522 157.444 25.8529L153.934 28.9195C154.66 29.4574 155.158 29.9552 155.427 30.4124C155.723 30.8697 155.87 31.4615 155.87 32.1878V39.1684C155.87 41.2665 156.449 42.8805 157.606 44.0103C158.762 45.1401 160.403 45.705 162.528 45.705C165.138 45.705 167.061 44.7232 168.298 42.7595V47.0769C168.298 48.3144 167.989 49.2021 167.37 49.74C166.752 50.2779 165.756 50.547 164.384 50.547H159.058V54.582H164.384C167.612 54.582 169.939 53.9901 171.365 52.8066C172.817 51.6231 173.544 49.713 173.544 47.0769ZM203.476 45.3015L209.932 17.0567H204.605L199.481 39.7332C199.239 39.4374 198.969 38.8725 198.674 38.0386L192.218 20.0425L185.802 38.0386C185.507 38.8725 185.237 39.4374 184.995 39.7332L179.871 17.0567H174.545L181.001 45.3015H182.575C184.08 45.3015 185.291 45.1132 186.206 44.7366C187.121 44.3601 187.888 43.7145 188.506 42.7998C189.124 41.8852 189.716 40.5672 190.281 38.8456L192.218 32.9545L194.195 38.8456C194.787 40.6209 195.378 41.9525 195.97 42.8402C196.563 43.7279 197.302 44.3601 198.19 44.7366C199.105 45.1132 200.341 45.3015 201.902 45.3015H203.476ZM228.445 41.2262C228.175 40.769 228.041 40.1771 228.041 39.4508V32.9141C228.041 28.2066 225.136 25.8529 219.326 25.8529C217.255 25.8529 215.626 26.1354 214.443 26.7003C213.26 27.2382 212.277 28.0184 211.498 29.0405L215.089 31.5422C215.762 30.8159 216.421 30.2914 217.066 29.9686C217.712 29.6458 218.465 29.4844 219.326 29.4844C220.644 29.4844 221.532 29.7668 221.989 30.3317C222.473 30.8966 222.743 31.5826 222.796 32.3896C222.768 32.82 222.594 33.1293 222.271 33.3176C221.976 33.506 221.437 33.6404 220.657 33.7211L218.72 33.9229C217.376 34.0573 216.151 34.286 215.049 34.6088C213.946 34.9316 212.963 35.5369 212.103 36.4246C211.269 37.2853 210.852 38.5228 210.852 40.1367C210.852 41.9391 211.417 43.3378 212.547 44.3331C213.677 45.3015 215.197 45.7857 217.106 45.7857C218.612 45.7857 219.878 45.5033 220.899 44.9384C221.921 44.3735 222.728 43.6741 223.32 42.8402C223.885 44.0237 224.934 45.0057 226.468 45.7857L229.978 42.7191C229.252 42.1812 228.74 41.6834 228.445 41.2262ZM221.666 41.0244C220.912 41.697 219.837 42.0332 218.438 42.0332C217.659 42.0332 217.039 41.8448 216.582 41.4683C216.125 41.0918 215.896 40.5536 215.896 39.8543C215.896 38.9396 216.206 38.321 216.824 37.9982C217.442 37.6484 218.209 37.4333 219.124 37.3526L220.334 37.2316C221.545 37.0971 222.365 36.9491 222.796 36.7877V38.4824C222.796 39.4778 222.42 40.3251 221.666 41.0244ZM247.107 26.9827C246.138 26.2294 244.953 25.8529 243.556 25.8529C242.265 25.8529 241.175 26.1757 240.287 26.8213C239.4 27.4399 238.686 28.2739 238.149 29.323C237.907 28.5697 237.516 27.9241 236.979 27.3862C236.44 26.8483 235.713 26.3371 234.8 25.8529L231.289 28.9195C232.016 29.4574 232.513 29.9552 232.782 30.4124C233.078 30.8697 233.226 31.4615 233.226 32.1878V45.3015H238.472V33.8422C239.251 31.4749 240.53 30.2914 242.305 30.2914C243.057 30.2914 243.69 30.3721 244.201 30.5335C244.711 30.6949 245.25 30.964 245.815 31.3405L247.107 26.9827ZM259.311 41.4683C258.691 41.7104 257.884 41.8314 256.89 41.8314C254.522 41.8314 253.339 40.6747 253.339 38.3614V37.9982H260.925C262.054 37.9982 262.915 37.8502 263.507 37.5544C264.098 37.2316 264.488 36.7474 264.677 36.1018C264.892 35.4562 265 34.5415 265 33.358C265 30.91 264.246 29.0539 262.74 27.7897C261.233 26.4985 259.149 25.8529 256.486 25.8529C253.904 25.8529 251.859 26.4582 250.353 27.6687C248.873 28.8522 248.134 30.4798 248.134 32.551V38.321C248.134 40.9571 248.82 42.8671 250.191 44.0507C251.563 45.2074 253.795 45.7857 256.89 45.7857C260.36 45.7857 262.874 44.8307 264.435 42.9209L261.328 40.0964C260.602 40.742 259.929 41.1992 259.311 41.4683ZM254.146 30.6949C254.711 30.103 255.49 29.8072 256.486 29.8072C257.561 29.8072 258.383 30.0763 258.947 30.6142C259.512 31.1521 259.795 31.9323 259.795 32.9545C259.795 33.4924 259.659 33.8691 259.391 34.0843C259.122 34.2994 258.637 34.4071 257.939 34.4071H253.339V32.9545C253.339 32.013 253.607 31.2598 254.146 30.6949Z" fill="white"/>
</svg>
